<?xml version="1.0" standalone="no"?>
<!DOCTYPE svg PUBLIC "-//W3C//DTD SVG 20010904//EN"
 "http://www.w3.org/TR/2001/REC-SVG-20010904/DTD/svg10.dtd">
<svg version="1.0" xmlns="http://www.w3.org/2000/svg"
 width="288.000000pt" height="288.000000pt" viewBox="0 0 288.000000 288.000000"
 preserveAspectRatio="xMidYMid meet">
<metadata>
Created by potrace 1.14, written by Peter Selinger 2001-2017
</metadata>
<g transform="translate(0.000000,288.000000) scale(0.100000,-0.100000)"
fill="#000000" stroke="none">
<path d="M1426 2868 c-10 -6 -79 -56 -154 -113 -171 -130 -228 -173 -529 -398
-134 -100 -319 -240 -413 -310 l-170 -128 0 -959 0 -960 1280 0 1280 0 0 960
0 960 -638 479 c-522 391 -642 477 -656 469z m-386 -1268 l0 -240 40 0 40 0 0
240 0 240 80 0 80 0 0 -240 0 -240 40 0 40 0 0 240 0 240 80 0 80 0 0 -258 c0
-295 -5 -323 -71 -390 -38 -38 -109 -72 -151 -72 -17 0 -18 -17 -18 -320 l0
-320 -80 0 -80 0 0 320 c0 298 -1 320 -17 321 -91 4 -182 76 -208 163 -12 38
-15 108 -15 303 l0 253 80 0 80 0 0 -240z m880 -440 l0 -680 -80 0 -80 0 0
280 0 280 -81 0 -80 0 3 283 c3 269 4 284 25 327 54 107 164 186 266 189 l27
1 0 -680z"/>
</g>
</svg>
